<mxfile host="Electron" agent="Mozilla/5.0 (X11; Linux x86_64) AppleWebKit/537.36 (KHTML, like Gecko) draw.io/27.0.9 Chrome/134.0.6998.205 Electron/35.4.0 Safari/537.36" version="27.0.9">
  <diagram name="Page-1" id="6qyqFSezLpO7iVB4mYSO">
    <mxGraphModel dx="864" dy="471" grid="1" gridSize="10" guides="1" tooltips="1" connect="1" arrows="1" fold="1" page="1" pageScale="1" pageWidth="827" pageHeight="583" math="0" shadow="0">
      <root>
        <mxCell id="0" />
        <mxCell id="1" parent="0" />
        <mxCell id="QjjJF0LMftC3rmdrn9Hu-32" value="" style="endArrow=classicThin;dashed=1;html=1;rounded=1;curved=0;endFill=1;exitX=0.487;exitY=1.039;exitDx=0;exitDy=0;exitPerimeter=0;" parent="1" source="QjjJF0LMftC3rmdrn9Hu-4" edge="1">
          <mxGeometry width="50" height="50" relative="1" as="geometry">
            <mxPoint x="167" y="114" as="sourcePoint" />
            <mxPoint x="414" y="324" as="targetPoint" />
            <Array as="points" />
          </mxGeometry>
        </mxCell>
        <mxCell id="QjjJF0LMftC3rmdrn9Hu-33" value="51820/UDP" style="edgeLabel;html=1;align=center;verticalAlign=middle;resizable=0;points=[];fontSize=10;" parent="QjjJF0LMftC3rmdrn9Hu-32" vertex="1" connectable="0">
          <mxGeometry x="-0.4972" y="-13" relative="1" as="geometry">
            <mxPoint x="42" y="59" as="offset" />
          </mxGeometry>
        </mxCell>
        <mxCell id="QjjJF0LMftC3rmdrn9Hu-1" value="Omada router" style="fillColorStyles=neutralFill;neutralFill=#9DA6A8;shape=mxgraph.networks2.icon;aspect=fixed;fillColor=#EDEDED;strokeColor=#000000;gradientColor=#5B6163;network2IconShadow=1;network2bgFillColor=none;network2Icon=mxgraph.networks2.router;network2IconXOffset=0.0001;network2IconYOffset=-0.1142;network2IconW=1;network2IconH=0.5485;verticalAlign=top;spacingBottom=0;spacingTop=-22;" parent="1" vertex="1">
          <mxGeometry x="234" y="268.03" width="50" height="27.425" as="geometry" />
        </mxCell>
        <mxCell id="QjjJF0LMftC3rmdrn9Hu-3" value="Linux PC" style="shape=mxgraph.networks2.icon;aspect=fixed;fillColor=#EDEDED;strokeColor=#000000;gradientColor=#5B6163;network2IconShadow=1;network2bgFillColor=none;network2Icon=mxgraph.networks2.pc;network2IconYOffset=-0.0593;network2IconW=0.9999;network2IconH=0.7096;verticalAlign=bottom;spacingBottom=-20;" parent="1" vertex="1">
          <mxGeometry x="234" y="394" width="49.995" height="35.480000000000004" as="geometry" />
        </mxCell>
        <mxCell id="QjjJF0LMftC3rmdrn9Hu-4" value="Windows PC&#xa;(remote)" style="shape=mxgraph.networks2.icon;aspect=fixed;fillColor=#EDEDED;strokeColor=#000000;gradientColor=#5B6163;network2IconShadow=1;network2bgFillColor=none;network2Icon=mxgraph.networks2.pc;network2IconYOffset=-0.0593;network2IconW=0.9999;network2IconH=0.7096;verticalAlign=top;spacingBottom=0;spacingTop=-37;" parent="1" vertex="1">
          <mxGeometry x="388.64" y="154" width="49.995" height="35.480000000000004" as="geometry" />
        </mxCell>
        <mxCell id="QjjJF0LMftC3rmdrn9Hu-5" value="Windows laptop" style="shape=mxgraph.networks2.icon;aspect=fixed;fillColor=#EDEDED;strokeColor=#000000;gradientColor=#5B6163;network2IconShadow=1;network2bgFillColor=none;network2Icon=mxgraph.networks2.laptop;network2IconW=1;network2IconH=0.5734;verticalAlign=bottom;spacingBottom=-20;" parent="1" vertex="1">
          <mxGeometry x="544" y="400.80999999999995" width="50" height="28.67" as="geometry" />
        </mxCell>
        <mxCell id="QjjJF0LMftC3rmdrn9Hu-6" value="Synology NAS" style="fillColorStyles=neutralFill;neutralFill=#9DA6A8;shape=mxgraph.networks2.icon;aspect=fixed;fillColor=#EDEDED;strokeColor=#000000;gradientColor=#5B6163;network2IconShadow=1;network2bgFillColor=none;network2Icon=mxgraph.networks2.nas_filer;network2IconW=1;network2IconH=0.62;verticalAlign=top;spacingBottom=0;spacingTop=-22;" parent="1" vertex="1">
          <mxGeometry x="544" y="268.03000000000003" width="50" height="31" as="geometry" />
        </mxCell>
        <mxCell id="QjjJF0LMftC3rmdrn9Hu-18" value="" style="endArrow=classicThin;dashed=1;html=1;rounded=1;curved=0;endFill=1;exitX=0.506;exitY=-0.005;exitDx=0;exitDy=0;exitPerimeter=0;" parent="1" source="QjjJF0LMftC3rmdrn9Hu-5" edge="1">
          <mxGeometry width="50" height="50" relative="1" as="geometry">
            <mxPoint x="264" y="471" as="sourcePoint" />
            <mxPoint x="434" y="364" as="targetPoint" />
            <Array as="points">
              <mxPoint x="569" y="365" />
            </Array>
          </mxGeometry>
        </mxCell>
        <mxCell id="QjjJF0LMftC3rmdrn9Hu-25" value="514/UDP" style="edgeLabel;html=1;align=center;verticalAlign=middle;resizable=0;points=[];fontSize=10;" parent="QjjJF0LMftC3rmdrn9Hu-18" vertex="1" connectable="0">
          <mxGeometry x="-0.4972" y="-13" relative="1" as="geometry">
            <mxPoint x="-56" y="20" as="offset" />
          </mxGeometry>
        </mxCell>
        <mxCell id="QjjJF0LMftC3rmdrn9Hu-9" value="Wireguard VPN" style="shape=mxgraph.networks2.icon;aspect=fixed;fillColor=#EDEDED;strokeColor=#000000;gradientColor=#5B6163;network2IconShadow=1;network2bgFillColor=none;network2Icon=mxgraph.networks2.encryption;network2IconXOffset=0.0006;network2IconYOffset=0.0881;network2IconW=1.0001;network2IconH=0.7019;verticalAlign=middle;spacingBottom=7;spacingTop=0;align=left;spacingRight=0;spacingLeft=36;fontSize=10;spacing=0;" parent="1" vertex="1">
          <mxGeometry x="405" y="223" width="34.63" height="24.31" as="geometry" />
        </mxCell>
        <mxCell id="QjjJF0LMftC3rmdrn9Hu-26" value="" style="endArrow=classicThin;dashed=1;html=1;rounded=1;curved=0;endFill=1;exitX=0.487;exitY=1.007;exitDx=0;exitDy=0;exitPerimeter=0;" parent="1" source="QjjJF0LMftC3rmdrn9Hu-6" edge="1">
          <mxGeometry width="50" height="50" relative="1" as="geometry">
            <mxPoint x="544.00314" y="311.08601500000003" as="sourcePoint" />
            <mxPoint x="434" y="344" as="targetPoint" />
            <Array as="points">
              <mxPoint x="568" y="344" />
            </Array>
          </mxGeometry>
        </mxCell>
        <mxCell id="QjjJF0LMftC3rmdrn9Hu-27" value="514/UDP" style="edgeLabel;html=1;align=center;verticalAlign=middle;resizable=0;points=[];fontSize=10;" parent="QjjJF0LMftC3rmdrn9Hu-26" vertex="1" connectable="0">
          <mxGeometry x="-0.4972" y="-13" relative="1" as="geometry">
            <mxPoint x="-62" y="5" as="offset" />
          </mxGeometry>
        </mxCell>
        <mxCell id="QjjJF0LMftC3rmdrn9Hu-28" value="" style="endArrow=classicThin;dashed=1;html=1;rounded=1;curved=0;endFill=1;exitX=0.523;exitY=1.081;exitDx=0;exitDy=0;exitPerimeter=0;" parent="1" source="QjjJF0LMftC3rmdrn9Hu-1" edge="1">
          <mxGeometry width="50" height="50" relative="1" as="geometry">
            <mxPoint x="378" y="304" as="sourcePoint" />
            <mxPoint x="394" y="344" as="targetPoint" />
            <Array as="points">
              <mxPoint x="260" y="344" />
            </Array>
          </mxGeometry>
        </mxCell>
        <mxCell id="QjjJF0LMftC3rmdrn9Hu-29" value="514/UDP" style="edgeLabel;html=1;align=center;verticalAlign=middle;resizable=0;points=[];fontSize=10;" parent="QjjJF0LMftC3rmdrn9Hu-28" vertex="1" connectable="0">
          <mxGeometry x="-0.4972" y="-13" relative="1" as="geometry">
            <mxPoint x="77" y="-7" as="offset" />
          </mxGeometry>
        </mxCell>
        <mxCell id="QjjJF0LMftC3rmdrn9Hu-30" value="" style="endArrow=classicThin;dashed=1;html=1;rounded=1;curved=0;endFill=1;exitX=0.48;exitY=-0.028;exitDx=0;exitDy=0;exitPerimeter=0;" parent="1" source="QjjJF0LMftC3rmdrn9Hu-3" edge="1">
          <mxGeometry width="50" height="50" relative="1" as="geometry">
            <mxPoint x="258" y="324" as="sourcePoint" />
            <mxPoint x="394" y="364" as="targetPoint" />
            <Array as="points">
              <mxPoint x="259" y="364" />
            </Array>
          </mxGeometry>
        </mxCell>
        <mxCell id="QjjJF0LMftC3rmdrn9Hu-31" value="514/UDP" style="edgeLabel;html=1;align=center;verticalAlign=middle;resizable=0;points=[];fontSize=10;" parent="QjjJF0LMftC3rmdrn9Hu-30" vertex="1" connectable="0">
          <mxGeometry x="-0.4972" y="-13" relative="1" as="geometry">
            <mxPoint x="53" y="-7" as="offset" />
          </mxGeometry>
        </mxCell>
        <mxCell id="QjjJF0LMftC3rmdrn9Hu-7" value="Wazuh VM" style="shape=mxgraph.networks2.icon;aspect=fixed;fillColor=#EDEDED;strokeColor=#000000;gradientColor=#5B6163;network2IconShadow=1;network2bgFillColor=none;network2Icon=mxgraph.networks2.data_management;network2IconW=0.8252;network2IconH=0.9989;verticalAlign=bottom;spacingBottom=-20;" parent="1" vertex="1">
          <mxGeometry x="393" y="329" width="41.260000000000005" height="49.945" as="geometry" />
        </mxCell>
      </root>
    </mxGraphModel>
  </diagram>
</mxfile>
